<?xml version="1.0" encoding="UTF-8" standalone="no"?>
<!-- Uploaded to: SVG Repo, www.svgrepo.com, Transformed by: SVG Repo Mixer Tools -->

<svg
   width="480"
   height="480"
   viewBox="0 -0.5 10.2 10.2"
   version="1.1"
   class="si-glyph si-glyph-bomb-2"
   fill="#000000"
   stroke="#000000"
   id="svg3"
   sodipodi:docname="bomb.svg"
   inkscape:version="1.4 (86a8ad7, 2024-10-11)"
   xmlns:inkscape="http://www.inkscape.org/namespaces/inkscape"
   xmlns:sodipodi="http://sodipodi.sourceforge.net/DTD/sodipodi-0.dtd"
   xmlns="http://www.w3.org/2000/svg"
   xmlns:svg="http://www.w3.org/2000/svg">
  <defs
     id="defs3" />
  <sodipodi:namedview
     id="namedview3"
     pagecolor="#ffffff"
     bordercolor="#000000"
     borderopacity="0.25"
     inkscape:showpageshadow="2"
     inkscape:pageopacity="0.0"
     inkscape:pagecheckerboard="0"
     inkscape:deskcolor="#d1d1d1"
     inkscape:zoom="2.062984"
     inkscape:cx="411.53978"
     inkscape:cy="231.94557"
     inkscape:window-width="3440"
     inkscape:window-height="1369"
     inkscape:window-x="1912"
     inkscape:window-y="-8"
     inkscape:window-maximized="1"
     inkscape:current-layer="svg3" />
  <g
     id="SVGRepo_bgCarrier"
     stroke-width="0" />
  <g
     id="SVGRepo_tracerCarrier"
     stroke-linecap="round"
     stroke-linejoin="round" />
  <g
     id="SVGRepo_iconCarrier"
     transform="matrix(0.57853112,0,0,0.57965576,-0.1618307,-0.07566692)"
     style="stroke:#000000;stroke-width:0.850851;stroke-dasharray:none;stroke-opacity:0.5">
    <title
       id="title1">663</title>
    <defs
       id="defs1" />
    <g
       stroke="none"
       stroke-width="1"
       fill="none"
       fill-rule="evenodd"
       id="g3"
       style="stroke:#000000;stroke-width:0.850851;stroke-dasharray:none;stroke-opacity:0.5">
      <g
         transform="translate(1)"
         fill="#dfdfdf"
         id="g2"
         style="stroke:#000000;stroke-width:0.850851;stroke-dasharray:none;stroke-opacity:0.5">
        <path
           d="M 15.427,0.016 C 15.334,0.968 14.573,1.271 13.332,1.655 12.748,1.837 12.127,2.034 11.62,2.375 10.73,1.902 10.109,2.012 10.109,2.012 L 8.808,3.628 c 1.279,0.411 2.367,1.217 3.104,2.271 L 13.2,4.296 c 0,0 0.095,-0.688 -0.958,-1.513 0.378,-0.2 0.825,-0.344 1.287,-0.487 C 14.664,1.944 15.854,1.464 15.999,0 Z"
           class="si-glyph-fill"
           id="path1"
           style="stroke:#000000;stroke-width:0.850851;stroke-dasharray:none;stroke-opacity:0.5" />
        <path
           d="M 7.857,4.364 C 7.261,4.165 6.627,4.052 5.962,4.052 c -3.293,0 -5.963,2.67 -5.963,5.964 0,3.294 2.67,5.963 5.963,5.963 3.294,0 5.963,-2.669 5.963,-5.963 0,-1.228 -0.371,-2.366 -1.006,-3.315 C 10.193,5.616 9.119,4.787 7.857,4.364 Z M 6.299,6.077 c -2.707,0 -4.162,1.509 -4.162,3.966 H 1.031 c 0,-2.635 2.212,-4.81 5.038,-5.079 -0.001,0 0.388,1.113 0.23,1.113 z"
           class="si-glyph-fill"
           id="path2"
           style="stroke:#000000;stroke-width:0.850851;stroke-dasharray:none;stroke-opacity:0.5" />
      </g>
    </g>
  </g>
</svg>
